<?xml version="1.0" encoding="utf-8"?>
<!-- Generator: Adobe Illustrator 19.0.0, SVG Export Plug-In . SVG Version: 6.00 Build 0)  -->
<svg version="1.1" id="Layer_1" xmlns="http://www.w3.org/2000/svg" xmlns:xlink="http://www.w3.org/1999/xlink" x="0px" y="0px"
	 width="20px" height="20px" viewBox="0 0 20 20" enable-background="new 0 0 20 20" xml:space="preserve">
<g id="XMLID_2_">
	<path id="XMLID_4_" fill="#FFFFFF" d="M20,12.5c0-2.5-0.5-4.3-1.1-6.1c-0.5-1.5-1.1-2.9-2.1-4.2c-1.3-1.6-3-2.3-5-2.2
		C10.4,0,9,0.3,7.7,0.7C6,1.2,4.2,1.8,2.7,2.8C1.2,3.9,0.2,5.3,0,7.2c-0.1,1.3,0,2.6,0.3,3.9c0.5,2.1,1.1,4.1,2.3,6
		c1.2,2,3,3,5.4,2.9c1.2,0,2.4-0.3,3.6-0.5c1.9-0.4,3.8-1.1,5.4-2.1C19.1,16.1,20,14.3,20,12.5z M15.6,11.7
		c-0.2,0.1-0.4,0.1-0.6,0.2c-0.2,0.1-0.4,0.1-0.6,0.2c0.1,0.4,0.3,0.8,0.4,1.3c0.2,0.6-0.1,1.2-0.6,1.4c-0.6,0.2-1.1-0.1-1.3-0.7
		c-0.2-0.4-0.3-0.8-0.4-1.3c-0.9,0.3-1.8,0.6-2.7,0.9c0.1,0.4,0.3,0.8,0.4,1.2c0.2,0.7,0,1.2-0.6,1.4c-0.6,0.2-1.1-0.1-1.4-0.8
		c-0.1-0.4-0.3-0.8-0.4-1.1c0,0,0,0-0.1-0.1c-0.4,0.1-0.8,0.3-1.2,0.4c-0.6,0.2-1.2-0.1-1.3-0.7C5,13.6,5.3,13,5.9,12.8
		c0.4-0.1,0.8-0.3,1.3-0.4c-0.3-0.9-0.6-1.7-0.9-2.6C5.8,10,5.4,10.1,5,10.2c-0.6,0.2-1.2-0.1-1.4-0.7C3.5,9,3.8,8.5,4.4,8.3
		C4.8,8.1,5.2,8,5.6,7.9C5.4,7.4,5.3,7,5.2,6.5C5,5.9,5.2,5.4,5.8,5.2C6.3,5,6.9,5.3,7.1,5.9c0.2,0.4,0.3,0.9,0.5,1.3
		c0.9-0.3,1.7-0.6,2.7-0.9c-0.2-0.5-0.3-0.9-0.5-1.4c-0.2-0.5,0.2-1.1,0.7-1.2c0.5-0.2,1.1,0.1,1.3,0.5c0.1,0.2,0.1,0.4,0.2,0.6
		C12,5,12.1,5.3,12.2,5.6c0.5-0.1,0.9-0.3,1.3-0.4c0.6-0.2,1.1,0.1,1.3,0.6c0.2,0.5-0.1,1.1-0.6,1.3c-0.4,0.2-0.9,0.3-1.3,0.5
		c0.3,0.9,0.6,1.7,0.9,2.6c0.4-0.1,0.8-0.3,1.2-0.4c0.6-0.2,1.2,0,1.4,0.6C16.5,11,16.2,11.5,15.6,11.7z"/>
	<path id="XMLID_3_" fill="#FFFFFF" d="M8.2,9.2c0.3,0.9,0.6,1.7,0.9,2.6c0.9-0.3,1.8-0.6,2.7-0.9c-0.3-0.9-0.6-1.7-0.9-2.6
		C10,8.6,9.1,8.9,8.2,9.2z"/>
</g>
</svg>
