<?xml version="1.0" encoding="utf-8"?>
<!-- Generator: Adobe Illustrator 19.0.0, SVG Export Plug-In . SVG Version: 6.00 Build 0)  -->
<svg version="1.1" id="Layer_1" xmlns="http://www.w3.org/2000/svg" xmlns:xlink="http://www.w3.org/1999/xlink" x="0px" y="0px"
	 width="250px" height="250px" viewBox="0 0 250 250" enable-background="new 0 0 250 250" xml:space="preserve">
<g id="XMLID_2_">
	<path id="XMLID_4_" fill="#2D333A" d="M250,156.1c-0.2-30.8-6.5-53.7-14-76.3c-6.1-18.6-13.7-36.4-26-52C194,7.4,172.4-0.6,147.2,0
		c-17.4,0.4-34.4,4-51,8.8C74.4,15.2,53,22.5,34,35.3C14.8,48.4,3,66,0.6,89.5c-1.7,16.7,0.5,32.9,4.4,49
		c6.2,26.1,14.1,51.7,28.4,74.8c15.5,24.9,38,37.7,67.1,36.7c15.2-0.5,30.5-3.3,45.3-6.7c23.9-5.6,47-13.5,67.9-26.8
		C238.1,200.8,250.6,178.7,250,156.1z M195.1,146.8c-2.5,0.9-5,1.7-7.5,2.6c-2.3,0.8-4.7,1.6-7.5,2.5c1.7,5.3,3.4,10.5,5.1,15.7
		c2.5,7.9-0.6,15-7.8,17.5c-6.9,2.3-13.8-1.2-16.6-8.8c-1.9-5.1-3.6-10.3-5.5-16c-11.1,3.7-21.9,7.3-33.2,11.1
		c1.7,5.2,3.4,10.2,5,15.2c2.7,8.4-0.4,15.6-7.6,18c-7.4,2.5-14-1.3-16.9-9.7c-1.6-4.7-3.2-9.4-4.9-14.2c-0.1-0.3-0.4-0.5-0.8-0.9
		c-5.1,1.7-10.3,3.5-15.5,5c-7.5,2.3-14.5-1.3-16.7-8.4c-2.2-6.8,1.4-13.5,8.7-16.1c5-1.8,10-3.4,15.7-5.4
		c-3.6-10.7-7.1-21.1-10.7-32c-5.4,1.8-10.4,3.4-15.4,5c-7.9,2.5-14.9-0.8-17.3-8.1c-2.3-7,1.4-13.7,9-16.4c5-1.8,10-3.4,15.3-5.2
		c-1.9-5.8-3.7-11.1-5.4-16.5c-2.3-7.4,0.9-14,7.9-16.5c6.7-2.5,13.7,0.9,16.5,8c2,5.3,3.7,10.7,5.7,16.7c11-3.7,21.8-7.2,33.2-11
		c-2-6-4-11.8-5.7-17.6c-1.9-6.5,1.9-13.4,8.3-15.6c6.2-2.1,13.2,0.8,15.9,6.8c1,2.2,1.7,4.7,2.5,7c1.2,3.4,2.4,6.9,3.8,11
		c5.7-1.8,10.8-3.6,16-5.2c7.3-2.2,14,1.1,16.5,8.1c2.3,6.5-0.9,13.5-7.8,16.2c-5.2,2.1-10.7,3.7-16.5,5.7
		c3.6,10.7,7.1,21.1,10.7,32c5.4-1.7,10.2-3.3,15.1-4.9c8-2.5,14.9,0.5,17.5,7.8C206.8,137,203,144,195.1,146.8z"/>
	<path id="XMLID_3_" fill="#2D333A" d="M102.9,114.7c3.7,10.9,7.2,21.3,10.8,32.1c11.3-3.8,22.1-7.4,33.3-11.2
		c-3.7-10.9-7.2-21.2-10.8-32.1C124.9,107.3,114.1,110.9,102.9,114.7z"/>
</g>
</svg>
